<svg xmlns="http://www.w3.org/2000/svg" width="127" height="126" fill="none"><circle cx="63.567" cy="62.833" r="62.833" fill="url(#a)"/><path fill="#F7DECE" d="M78.727 46.326c-11.312 0-35.78-2.941-35.78-2.941s-4.891 5.381-7.72 8.21c-5.268 5.268-4.81 11.936-5.508 20.253.868 23.116 15.667 41.534 33.853 41.534 18.082 0 32.822-18.212 33.837-41.15-.996-10.265-7.907-25.906-18.682-25.906"/><path fill="#C1694F" d="M63.574 102.069c-6.638 0-10.11-3.28-10.484-3.656a2.828 2.828 0 1 1 3.97-4.027c.145.133 2.28 2.027 6.514 2.027 4.295 0 6.428-1.951 6.518-2.033a2.85 2.85 0 0 1 3.982.082 2.81 2.81 0 0 1-.017 3.95c-.373.377-3.846 3.657-10.483 3.657m2.828-14.14h-5.656a2.828 2.828 0 0 1 0-5.656h5.656a2.828 2.828 0 0 1 0 5.656"/><path fill="#662113" d="M49.433 76.617a2.83 2.83 0 0 1-2.828-2.828v-5.656a2.828 2.828 0 1 1 5.656 0v5.656a2.83 2.83 0 0 1-2.828 2.828m28.28 0a2.83 2.83 0 0 1-2.828-2.828v-5.656a2.828 2.828 0 0 1 5.656 0v5.656a2.83 2.83 0 0 1-2.828 2.828"/><path fill="#577CFF" d="M63.567 23.121c23.203 0 37.699 17.12 37.699 31.388 0 14.264-2.901 19.976-5.8 14.264-2.901-5.704-5.8-14.239-5.8-14.239s-9.836 6.371-17.542-2.882c0 0 3.046 17.12-14.357 0 0 0 2.901 11.417-14.5-2.85 0 0-8.701 5.707-11.6 19.97-.803 3.963-5.8 0-5.8-14.263-.003-14.267 11.598-31.388 37.7-31.388"/><circle cx="79.724" cy="87.747" r="1.077" fill="#FF9494"/><circle cx="81.339" cy="90.441" r=".539" fill="#FF9494"/><circle cx="79.184" cy="93.672" r="1.616" fill="#FF9494"/><circle cx="84.032" cy="94.21" r="1.077" fill="#FF9494"/><circle cx="86.723" cy="90.44" r="1.616" fill="#FF9494"/><defs><linearGradient id="a" x1="63.567" x2="63.567" y1="0" y2="125.665" gradientUnits="userSpaceOnUse"><stop stop-color="#AFC1DC"/><stop offset="1" stop-color="#E2E5ED"/></linearGradient></defs></svg>